<mxfile host="app.diagrams.net" modified="2024-07-15T07:10:59.235Z" agent="Mozilla/5.0 (Macintosh; Intel Mac OS X 10_15_7) AppleWebKit/537.36 (KHTML, like Gecko) Chrome/126.0.0.0 Safari/537.36 Edg/126.0.0.0" etag="6OQoWNbB-T4pb6tKIFoV" version="24.6.5" type="device">
  <diagram name="Page-1" id="Rzzgz8CnAXiw9eyvKjCR">
    <mxGraphModel dx="1173" dy="800" grid="1" gridSize="10" guides="1" tooltips="1" connect="1" arrows="1" fold="1" page="1" pageScale="1" pageWidth="850" pageHeight="1100" math="0" shadow="0">
      <root>
        <mxCell id="0" />
        <mxCell id="1" parent="0" />
        <mxCell id="gOSVYM_u8wTfRxYUawr6-45" value="" style="rounded=1;whiteSpace=wrap;html=1;fillColor=none;" parent="1" vertex="1">
          <mxGeometry x="20" y="330" width="730" height="710" as="geometry" />
        </mxCell>
        <mxCell id="gOSVYM_u8wTfRxYUawr6-38" style="edgeStyle=orthogonalEdgeStyle;rounded=0;orthogonalLoop=1;jettySize=auto;html=1;entryX=1;entryY=0.5;entryDx=0;entryDy=0;" parent="1" source="gOSVYM_u8wTfRxYUawr6-31" target="gOSVYM_u8wTfRxYUawr6-35" edge="1">
          <mxGeometry relative="1" as="geometry">
            <Array as="points">
              <mxPoint x="710" y="515" />
              <mxPoint x="710" y="860" />
            </Array>
          </mxGeometry>
        </mxCell>
        <mxCell id="gOSVYM_u8wTfRxYUawr6-37" style="edgeStyle=orthogonalEdgeStyle;rounded=0;orthogonalLoop=1;jettySize=auto;html=1;entryX=0;entryY=0.5;entryDx=0;entryDy=0;" parent="1" source="gOSVYM_u8wTfRxYUawr6-27" target="gOSVYM_u8wTfRxYUawr6-31" edge="1">
          <mxGeometry relative="1" as="geometry">
            <Array as="points">
              <mxPoint x="290" y="555" />
              <mxPoint x="290" y="555" />
            </Array>
          </mxGeometry>
        </mxCell>
        <mxCell id="gOSVYM_u8wTfRxYUawr6-42" style="edgeStyle=orthogonalEdgeStyle;rounded=0;orthogonalLoop=1;jettySize=auto;html=1;entryX=0;entryY=0.5;entryDx=0;entryDy=0;exitX=0;exitY=0.5;exitDx=0;exitDy=0;" parent="1" source="gOSVYM_u8wTfRxYUawr6-27" target="gOSVYM_u8wTfRxYUawr6-41" edge="1">
          <mxGeometry relative="1" as="geometry">
            <Array as="points">
              <mxPoint x="50" y="690" />
              <mxPoint x="50" y="240" />
            </Array>
          </mxGeometry>
        </mxCell>
        <mxCell id="gOSVYM_u8wTfRxYUawr6-35" value="&lt;font style=&quot;font-size: 16px;&quot;&gt;&lt;b&gt;Database&lt;/b&gt;&lt;/font&gt;" style="rounded=1;whiteSpace=wrap;html=1;fillColor=none;labelPosition=center;verticalLabelPosition=top;align=center;verticalAlign=bottom;" parent="1" vertex="1">
          <mxGeometry x="342" y="740" width="330" height="240" as="geometry" />
        </mxCell>
        <mxCell id="gOSVYM_u8wTfRxYUawr6-27" value="&lt;font style=&quot;font-size: 16px;&quot;&gt;&lt;b&gt;Frontend&lt;/b&gt;&lt;/font&gt;" style="rounded=1;whiteSpace=wrap;html=1;fillColor=none;labelPosition=center;verticalLabelPosition=top;align=center;verticalAlign=bottom;" parent="1" vertex="1">
          <mxGeometry x="70" y="410" width="220" height="560" as="geometry" />
        </mxCell>
        <mxCell id="JvV-DLWW3ZC7nIPsX7RJ-3" value="" style="shape=image;verticalLabelPosition=bottom;labelBackgroundColor=default;verticalAlign=top;aspect=fixed;imageAspect=0;image=https://cdn.worldvectorlogo.com/logos/tailwind-css-1.svg;" vertex="1" parent="1">
          <mxGeometry x="90.00000000000003" y="753" width="180" height="62.4" as="geometry" />
        </mxCell>
        <mxCell id="JvV-DLWW3ZC7nIPsX7RJ-4" value="" style="shape=image;verticalLabelPosition=bottom;labelBackgroundColor=default;verticalAlign=top;aspect=fixed;imageAspect=0;image=https://flowbite.s3.amazonaws.com/brand/logo-light/type/flowbite-logo.png;" vertex="1" parent="1">
          <mxGeometry x="85.50000000000003" y="860.6" width="189" height="50.8" as="geometry" />
        </mxCell>
        <mxCell id="JvV-DLWW3ZC7nIPsX7RJ-5" value="" style="shape=image;verticalLabelPosition=bottom;labelBackgroundColor=default;verticalAlign=top;aspect=fixed;imageAspect=0;image=https://upload.wikimedia.org/wikipedia/commons/thumb/a/a7/React-icon.svg/2300px-React-icon.svg.png;" vertex="1" parent="1">
          <mxGeometry x="135.51000000000002" y="440.6" width="88.98" height="77.34" as="geometry" />
        </mxCell>
        <mxCell id="JvV-DLWW3ZC7nIPsX7RJ-6" value="" style="shape=image;verticalLabelPosition=bottom;labelBackgroundColor=default;verticalAlign=top;aspect=fixed;imageAspect=0;image=https://reactrouter.com/_brand/react-router-stacked-color.png;" vertex="1" parent="1">
          <mxGeometry x="109.00000000000003" y="543" width="142" height="75.47" as="geometry" />
        </mxCell>
        <mxCell id="JvV-DLWW3ZC7nIPsX7RJ-7" value="" style="shape=image;verticalLabelPosition=bottom;labelBackgroundColor=default;verticalAlign=top;aspect=fixed;imageAspect=0;image=https://upload.wikimedia.org/wikipedia/commons/thumb/9/96/Sass_Logo_Color.svg/1280px-Sass_Logo_Color.svg.png;" vertex="1" parent="1">
          <mxGeometry x="124.00000000000003" y="641" width="112" height="84" as="geometry" />
        </mxCell>
        <mxCell id="JvV-DLWW3ZC7nIPsX7RJ-12" value="" style="shape=image;verticalLabelPosition=bottom;labelBackgroundColor=default;verticalAlign=top;aspect=fixed;imageAspect=0;image=https://miro.medium.com/v2/resize:fit:649/0*YGT1MoUTDhgQj5Ak.png;" vertex="1" parent="1">
          <mxGeometry x="410.47" y="780" width="193.05" height="69.01" as="geometry" />
        </mxCell>
        <mxCell id="JvV-DLWW3ZC7nIPsX7RJ-14" value="" style="shape=image;verticalLabelPosition=bottom;labelBackgroundColor=default;verticalAlign=top;aspect=fixed;imageAspect=0;image=https://devinstechblog.com/wp-content/uploads/2016/08/postgresql-logo.png;" vertex="1" parent="1">
          <mxGeometry x="392.245" y="860" width="229.5" height="105.34" as="geometry" />
        </mxCell>
        <mxCell id="gOSVYM_u8wTfRxYUawr6-31" value="&lt;font style=&quot;font-size: 16px;&quot;&gt;&lt;b&gt;Backend&lt;/b&gt;&lt;/font&gt;" style="rounded=1;whiteSpace=wrap;html=1;fillColor=none;labelPosition=center;verticalLabelPosition=top;align=center;verticalAlign=bottom;" parent="1" vertex="1">
          <mxGeometry x="350" y="410" width="324" height="290" as="geometry" />
        </mxCell>
        <mxCell id="gOSVYM_u8wTfRxYUawr6-8" value="" style="shape=image;verticalLabelPosition=bottom;labelBackgroundColor=default;verticalAlign=top;aspect=fixed;imageAspect=0;image=data:image/jpeg,/9j/4AAQSkZJRgABAQAAAQABAAD/2wCEAAkGBxEQEhUQEhISFhIVFRcYFhcYFRYVFxUWFhUXFxUVFRYYHSggGholGxcVIjEhJSkrLi4uGB8zODUsNygtMisBCgoKDg0OGxAQGi0lIB8tLS0tLS0tLS0tLS0tLS0tLS0tLS0tLS0tLS0tLS0tLS0tLS0tLS0tLS0tLS0tLS0tLf/AABEIAKgBLAMBEQACEQEDEQH/xAAbAAEAAwADAQAAAAAAAAAAAAAABAUGAQIDB//EAEMQAAEDAQUEBQoEAwcFAAAAAAEAAgMRBAUSITEGQVFxEyJhgZEyMzRCUnJzsbLBFIKh0ZLC8BUjVGKTs9IWNVOi0//EABoBAQADAQEBAAAAAAAAAAAAAAABAwQCBQb/xAAyEQEAAgIBAwEIAQIFBQAAAAAAAQIDEQQSITETBSIyM0FRcYFhFJEVIyRSsTRiodHw/9oADAMBAAIRAxEAPwDRL5FiEBAQEBAQEBAQEBAQEBAQEBAQEBAQEBAQEBAQEBAQEBAQEBAQEBAQEBAQEBAQEBAQEBAQEBAQEBAQEBAQEBAQEBAQEBAQEBAQEBAQEBAQEBAQEBB36J3su8Cuui32TqToney7wKenf7Sal1c0jUEcxRRMTHmBwoQICAgICAgICAgICAgICDljCcgCTwAqfAJETPhI5pBoQQeByKTEx5HCIEBAQEBAQEBAQEBAQEBAQEBBqL4vaWy2ezGIMLpMLTjDiABEXVABGfVX0F83pYItr7NU26a7Vf8A1RbeFm/gk/5rJ/ic/wC1X6yDNJaLVKZHhrnBgaGxsfQAOJxEEn2v0WXPmtyZjpr4c2tNnk9pBIIIIyIORB4ELLMTE6lw7xWd7gS1jnAakNJA50XVcdrRuIIiZcCFxbjDXYB61Dh8dFEY7zG4jsdM62kRXZO4YhE8jjSngDmVbHGyzG4rOnUUlFcCDQ5EajhzVMxMTqXLtJA9oBc1zQdCQQDyrqupx3iNzHk1JJA9tC5rgDpUEV5VUWpasbmNExMPWzWGWXNjHOHEDLxOS7x4MmT4YTFZl1tNkkjyexza6VGvI6KL4r0+KNImsw842Fxo0Ek6ACpPcuIrNp1EERtJfdc4FTE+nKvyV08XNHmsp6LIhCo1O9OUtt1zkVET6cvsr44uaY3FZddFvsjSRuaaOBB4EEHwKptWazq0aRPZ1XKE67TPEeliiLjQgVa8t/8AVa+LOTHbrrXaym47xCFMZDJK+UAPe/EWgEBvUa0Cjs9Gg9645N5vkmZjUovO5SYbtneMTYnkcaa8q6qK8bLaNxVHRLxmgew0e1zT2gj5qu+O1J96NImJjy81ygQEBAQEBAQEBAQEBAQEHBUDVXrBZnQWY2ifomtwlpLmtxOMRGHrDgScuC+jtjpkwxFp14atRNe6t6O7P8cz/Uj/AGWP+h4/+/8A4cenX7q+G3NjncbO/GyMtDX1BDw5jXOFRlSpI7llvrjZYmk7hxPuz2XV82D8RgtMAr0lGvHA6BxppTR3ZTgtnKwRnrGTH9Vlq9XeFdtPagxrbsgdqA60vGuA5iOvtPpmNzfeC6zWjjYvTr5LT0xqFhYrULPd8kvRtfgJIYTQE1aG1NDlWh03LrhW1x+qf5Tjn3dqqC/bdiEkkzTxjbG1sfaBWr+/Ess+0r9Xjs49WdrDa5jaw2huQlGE9pwF7D4Bw8Fbz8dbUjLCckRMbSr+vFtniszxCJZiKRAnC1h6MF73HkNwrnuWq+SuPDW1o34dzMRXans8lpt08LbQ6DC0uNIo3sNCOtUukdXIU0CxevPKtGOY7K4t1zqXe+LytL5nwwukhs8JDBgaA6RwHWOIg0YCaACnkk1NVbyuRfHPRjj/AMOrWmO0LS5DJaY5LPO5zsqte4DEOGYABINCCuuNktnrNMsFJm0alGuF8gsM1ohYDacLsIpWjmtFBTfmSab9E4WOMeO0xHeCkaiVZZr2trDV1qe872vjjweDWhwHeFknn5q27uPUtC02Wb0tpllkAxEl7RWoFcIqPD9VdxbVzZ5vMfR1SYtbaslvO39I5z7RJGcbgI2sjDWtDiGjrMLnVFM657lzyOZlpfUItktEvK32yWeRr5MPVjw9WoxHFWpbuNMtfBZeRyfWiNx3hze/U81kVrnZy2zdNHEJP7rrVZhbn1XGuKldfkvU4HJv1Rj+i7HafDpYoWvvKcOzHTVpxIgjIH37lZalbczUpmN3ed92+2i0SDpnwxNcBG1rGUc3CDjLntOKpJ0oN2qnl8nLjv01jsXtMT2Q7feE0/Rtkc13RuccQGEuBbSjgMia51FOSx5uXOWnTaO7i19xqXisasQEBAQEBAQEBAQEBAQEHBUC72s8xYvfH+w9e3y5/wBNH6aL/CpKLxds4iWouudlijZ07yHWiQNY3WhI1puFMydBkve4dfQx+/PlopHTHdRXrdf4aZ+pErnSB5NS7EcwTxbkOWHuwc/Fat+qfEq8sTE7Tpv+1z8/5mLVxf8ApJ/bunwKdeN/DOuNrTghsUPrY8RHBrIXBx8XtHeva5Xu8aIn+Gi/wm1vkWLk7/aao5kf6av6/wCC/wALpsw8C0NrvDh30r9lj9nzEZ42rx/E5vK+rayeWMSMaGvOEdED1CAWGtc8j+hWzk8zJiyTXTu95rKP/b9u/wDNH/oj/kqP8SyfaHPqyjXTbZrK0CNwPEObVrjU5kClN+YKoxcu+O02j6oi8xO19YL7baXiGezsq7IOaQ8VpvqA4cxVehj5WLPMUtXvKyL1t20qLU51mtMjYnFpYW4Tr1XtDsJrrvHdVYs9Z42beNXaOieyfFtQ89WeCN7d5Yc+fRvH8y019oUt2yVdxlifLx2nsjIZI8Ao2VrjTcC3Dp2EOGXYqefgrSIvTxKMlYjvCsdG4Cpa4DiQQF580tEbmFWpWOzXpMf5voctXA+dDvH8SHb5HNtlqc0kOEzSCNQehiVnMtNeRNo+ibzq6yi2omAwyQxyN3kEsNPdcCCe8K6vtGJjWSqYy/dztFDEIorTG3CJHBpbSnlNcWmgyBBFMuKczBjtjjLRN6xrcKVeSoFIICAgICAgICAgICAgICgXU1/WVzI45bPPJ0QFCGtoHBmEkdcbiV7leVx7Y4rdo6q61Lz/ALZsH+DtH8Lf/ouOrhfZG8aILys5nEggmbA1jepgbifJidXLH5IGHfuVUzxfUi0eIR7m0O22p9qndaZGloALIWGlWR1zLqZYnEAnuGdFTzOV6ttV8Q5vffhZ2u+GPs4hlZK6RvkPa1rqEeSXVcD2HsV9eTjyYejJ5dReJrqU6wWiNl3ySSxl8YJxMyqalgpnlr8lo4eo4878d3dO1UYXvd8RxtgtDnjMN6N7s+wuODvqq6Tw6z1R5/aI6I7qa02mW0zG0zANOHDHGDiETK1oTvcTmTyG5Y+XyfVn+Fd79SZfd5tn/DxsZIOhBxOcAGmrAOqa5+Cu5HJpkwVrHmHV7RNdQjxvLSHNNCDUHgRovPraazuFUTpcS33ZpQPxUL8QFMcYLqjh1esM91CF6n9Tgz1j1Y7ruutvLx/t6xw52ezTSSbi4FjQe10mY/K0qYvxMUe73/8Av5TukeHhc1uijs8dntMT5C0ecbRxByqdQ4Z8K1VOHPgms0yQ5rautSkMvqwwnHBDaJJR5ILHNAJ/zPoAO3Mq+luJinqr5TE0hDum8Sx801pjErpyC9raEMAyY1uKlcLQBXLSu9U15lLZJm8dpRF4me6W68btacXRWlx9jo5COWfV8TRWxHC31J9xW3hb5LXN072dGxrSyKOtSA4guc8jLEaDIaAb1m5nJjLqtfEOb32n39fbZ4o4GRzBzHxlzi1oZRoNcw6v6LRm5OO+Dpie7q14munbZr0ln5vocsnA+dDjF8TzNsENutTyzG3pKFuWYMMQOuXctObLXHypm0dnVratuXs+8Lt1MdoafZDJD9NR4Fda4Vp3/wC0+4rr1vN1rdG1sZis0ObGupje6haHOAJDWgE0FTqq+Xyq2r6dPDm948Q815ioUggICAgICAgICAgICAgICAgICAoEu03mwWKSy4ZDI85UbVo6zTm6uWQK9Tj8jHXjzSZ7911bRFdIi8xSICAgICAgICAgIO0VMQxeTUV5Vz/RTXXVG/CY8rUX/ZbPU2azzvlIoMTXMaOb36DkCV7FMvFxe9Tyv3SvhR2dr6F0hxSPc57yMhicakAbgNB2ALy8+T1LzZTady9VU5EBAQEBAQEBAQEBAQEBAQEBAQEBAQEBAQEBAQEBAQEBAQEBAQEBAQEBAQEBAQEBAQEBAQEBAQEBAQEBAQEBAQEBAQEBAQEBAQEBAQEBAQEBAQEBAQEBAQEBAQEBAQEBAQEBAQEBAQEBB0nlDGue7JrQSeQFSprWbTEQmI287HbI5m4o3Bw38R2Eag813kxXxzq0ExMdpe6qQKQQEBAQEBAQEBAQEBAQEBAQEBAQEBAQEBAQEBAQEBAQEBAQQ748xL8N/wBJVvH+bDqvl86s9ofG7Gxxa4bwf6qvo70reNWhqmIlvdnbe+eHG+mIOLSQKVpQ1pxzXgcvDXFk1Xwz3iInstFmViAgICAgICAgICAgICAgICAgICAgICAoBSCAgICAoBSCAgICCHfHmJfhv+kq3j/Nj8uqeXzVfStbcbGejn4jvk1eH7Q+b+mfL5XywKhSCAgICAgICgFIICAgICAgICAgICAoEW33hFAMUjgOA1c7kFdiwXyzqsOq1myBd+0kEpwmrHVyxUoe/QHsP6rRl4OSkbju6tjmFysSsQEBQJNhsMkxoxteJ0A5lXYcF8s6rDqtZlLvC4poRioHN3ltcuY+6vzcLLjjfmHU45hVrGrEBAUCLb7wigbikcBwGpPIK7FhvknVYdVrNlXNfkE8Eoa7C7o39V1AT1TpnQ9y1V4mTHlrt3FJizDr22huNjPRz8R3yavD9ofN/TPl8r5YFQpEG8r1is467utuaM3Hu3DtKvw8e+X4YdVpMvO676htGTTR/sOyPduPcus3FyYvPhNqTCyWZwICAgsbBc8koxmjI9cbshTs4rVh4l8nee0fy7rSZLdc0kYxij46VD255do3fqpzcO9I6o7x/CbY5hXLGr8O0bakDiaaV1U1jc6TD3lsZa3HUYct1DmaU+R7wrbYemvVtPT2RlU5EBAQEBAQEGTvXautWwD85H0t+58F62D2fHm/9l9cf1lmJZHPJc4lzjqSak969KtYrGo8Lvw6LoW11X9NZ6NrjjHquOnund8uxZc/Epl/iXFqRLZ3XeTLQzGyuRoQdQaV7x2rxc+C2G2pZ7VmJTQK5DVUxG51CPLT3Xsx60x/IP5j9gvX4/s6POT+y6uL7tJDE1gDWgADQAUAXq1rFY1C7T0XQpr0uCOWrm9R/EDIn/MPusOfg0yd47SrtjiWRt9ifA/A+laVBGhGef6LxM2G2K2pUWrqUZ7gASTQAVJ4AaqqImZ1CNfRlb12r1bAPzuH0t/fwXq4PZ/1yf2W1x/dl5pXPcXOJc46kmpXp1rFY1C+OzougQbjYz0c/Ed8mrw/aHzf0z5fK7mlaxpe40a0Ek8ANVirWbTEQrjv2hkb12qe7qwDCPbPlHkPV+fJevg9nxXvkX1xa8s49xJJJJJzJJqSe0r0YiIjULXCkX917USR0bLWRnH1x3+tyPisGfg1v3r2lXbHE+GwslpZKwSMNWnTdoaGo5grx8mO2O3Tb6M8xqUuy2d0rwxvlHT9ymLHOS0Vr5KxuVwWWayeVSaYbvUae3+ieS36wcfz71lvu1/KtvC8pJz1zluaMmju3rJm5GTL5nt9ldrzLiwXlJAeo7Le05g8x+yjDyb4p92f0RaY8LKlmtXCGY/wOP7+B5rZ/k8n/tss1WyptdmdE8xu8pvDlUEfosOXFOO01lVaOmdS8aqvcoEBAQEBAQEHDtFNfMJh8pZoOQX1LYudn7l/ElxLsLG0rTU1rkOGmqycrk+jHbzLi9+lc3pstHhLoSWuaK0JLg6g4nMH9OxY8HPv1av3V1yzvuxwXrr2y2G83J74+leP7S+KFGXy1Fm8tvvN+YWDH8cflVXy+lL6tscoCAgx22Pnm/DH1OXh+1PmR+FGXyzF5eZk+G/6SsOH5lfyrr8T5kvpmtdXBcRtILy7DGHYTTyiQAaDcNRmsfK5fo9ojurvfSdfWzDWNdLE40aCXNca5AZ4T9iqOPz5tbpu5pl+ksuvTXNxsZ6OfiO+TV4ftD5v6Z8vlPv70eb4blRxfm1/LinxQ+cL6NrajZLZN1to6vVqeqDQ0BoS5x0FeFTyWTLmv1+njju4m071CRtfsY6xgyA0brQmoIqB1DrqRkUpmyVvGPJHefEoi0xOrMlDE55DWgucdABUrTa0VjcysmdeX0LZ+yPhs7I3ijhiJFa0q4mlRlvXz/KyVvlmasuSdy0mzXpDPzfSV3wPnQnH8SDbfOP9931FUZvmT+Zc28y0b7BE6eBha0NMOIgZYiONNePcvVnBjnLSJj6LumNw87RbpmEt/BswA6YCcveGS4vmyUnXp9kTaYnwrrwMJmY6HIHDibQjC7EKjP8ArxWXN6fq1nH9ddnFtdXZ22o9Jfyb9IU+0Pnz+jL8SqWFWKQQEBAQEBBw7RTXzCYfKWaDkvqWxsNhvJl95vyK8j2n5qpytHaPId7rvkV52P44/KmPL5Y3QL6iGxs9hvNye+PpXj+0vij8KMvlqLN5bfeb8wsGL44/KqPL6UvqmxypBAQY7bHzzfhj6nLw/anzI/DPm8sxeXmZPhv+krDh+ZX8uK+XzJfTNbT7JXtFE0wyHCS8uDj5ObWihO45b8l5nO497z1VU5KzPdZ7Q3xCyN8WLE9zS2jc6Yhq46DXn2LNxeNkteLa1EOKUne2FXuNLcbGejn4jvk1eJ7R+b+mfL5T7+9Hm+G5Z+L86v5cU+KHzhfRtbcbA7Ux2SjHZHrCrsmkOcD5XqnLfksOSuTHl9WsbhXO4nbT7T2oW9uAjCyhAoamhLTUnT1QsObm2tki2vCuck7Vd33dFAMMbQOJ1ceZ+2izZc98k+9LibTZLVLlabNeks/N9JWzgfOj9u8fxIFt84/33fMqjN8y35lzbzLSWyzsklga55aegBYQaHECKZ+PgvWy0re9Imdduy+Y3MPFovJhoKupv6jge850VUf1tZ1HdH+Y67Q0xwVDemy6TDzbT9cSjmdPXTx1fVGTXZD2o9Jfyb9IWf2h8+f05yfEqljViAgICAgICDh2hU18wmPL5pdl2yz0Ebaje7Ro5n7ar6PLnpijdpaptEQ3NxXT+GYRixOcak0oBQZABeJyuT61t+Ihnvbayc2oIOhFPFZ6zqYlxDD3pszLF1o6yMHAdYDtaNe7wXt4ObS/a3aWmuSJWmw/m5PfH0hZfaXxR+HGVpmOoQeBB8F51Z1O1MNpde0MctGv6j+05Hkfsve4/Opk7W7S1VyRK5BW925QQrwvOKAVe7Pc0ZuPIKjNyceKN2lza0R5Yu+LwNokx4cIAoBrkCTme9eByuR6196Z726pVs8Qe1zDo5pHiKKmlumYn7OYnTBXrcM1nqaY2e00ae8PVXvYOZTJGvEtNbxKqWp2IJl33bLOaRtqBq45NHM/bXsVOXPTFG7S5taIbu5bu/DRdHixGpJNKCppkB3BeFyc3q36me1uqdpNss4ljdGSQHtIJGorvVeO80vFo+jmJ1O2EvS4ZoM6Y2e00ae8PV+Xavdw8vHl7fVpreJVS1O1ldd9zWfJpxM9h2n5fZ7vBZs3Fx5fMalxakS2903i20R9I1rm50II376HeM9V4mfBOK3TM7Z7RqU1UuUiwWswyNkAqW7uI0IqrMOWcV4vCazqdrSWz2W0Ve2UQuJ6zX0Iz1IqR81ttj4+f3q26Z+q2YrZ4bQ2pj3taw4msYG13Ejhx3Ljm5K2tHT9I8uck90ayS2h56ON8p7A91BzzyCpx2zX92syiOqe0LEWKGzde0Pxy6iNprnxcf3/AFWr0seD3ss7t9nfTFe8qu8bWZpHSEUru1oAKDPesWfLOW83V2nc7RlU5EBAQEBAQEBB1YwNFGgADQAUCmbTPeUuyhAgIOrWAVoAKmpoKVPE9uimbTPlMzt2UIEFpdl+Sw5VxM9knT3TuWzBzb4u094WVyTCZeG073CkQw8XHM9w071fm9pTaNUjTqcv2UD3lxJJJJ1JzJ5rzZtNp3Kr8uFCBATwKO9dmopauj/u39g6pPa3dzHgVuwc69O1u8La5JjyiXZsmGnFO4O/yNrT8x1PdRW5vaG+2OE2y/ZpYow0BrQA0aAZAdy821ptO5VTO3ZQgQE2KO9dmopauZ/dv7B1Tzb9wtuDnXp2t3hZXJMPO7Nlo4+tKekdw0YO7U9+XYu8/PtftTtCbZZlfgUyGQXnzO+8qnKAgKBaWG9g1vRSxtki4UAcOR3/AD7VtxcqIr0ZI3Cyt+2pd7RfdG9HZ29Ezj6x7/6K6yczUdOKOmCcn0qqCa5nVYZmZncqxAQEBAQEBAQEBAQEBAQEBAQEBAQEBAQEBAQEBAQEBAQEBAQEBAQEBAQEBAQEBAQEBAQEBAQEBAQEBAQEBAQEBAQEBAQEBAQEBAQEBAQEBAQEH//Z;" parent="1" vertex="1">
          <mxGeometry x="431.81999999999994" y="433.78" width="162.47" height="90.98" as="geometry" />
        </mxCell>
        <mxCell id="JvV-DLWW3ZC7nIPsX7RJ-8" value="" style="shape=image;verticalLabelPosition=bottom;labelBackgroundColor=default;verticalAlign=top;aspect=fixed;imageAspect=0;image=https://cdn.worldvectorlogo.com/logos/apollo-graphql-1.svg;" vertex="1" parent="1">
          <mxGeometry x="426.43999999999994" y="537" width="173.23" height="62.36" as="geometry" />
        </mxCell>
        <mxCell id="JvV-DLWW3ZC7nIPsX7RJ-9" value="" style="shape=image;verticalLabelPosition=bottom;labelBackgroundColor=default;verticalAlign=top;aspect=fixed;imageAspect=0;image=https://cdn.icon-icons.com/icons2/2699/PNG/512/graphql_logo_icon_171045.png;" vertex="1" parent="1">
          <mxGeometry x="427.48999999999995" y="614.4300000000001" width="171.13" height="85.57" as="geometry" />
        </mxCell>
        <mxCell id="gOSVYM_u8wTfRxYUawr6-41" value="&lt;font style=&quot;font-size: 16px;&quot;&gt;&lt;b&gt;IAM&lt;/b&gt;&lt;/font&gt;" style="rounded=1;whiteSpace=wrap;html=1;fillColor=none;labelPosition=center;verticalLabelPosition=top;align=center;verticalAlign=bottom;" parent="1" vertex="1">
          <mxGeometry x="89.33" y="170" width="190" height="140" as="geometry" />
        </mxCell>
        <mxCell id="JvV-DLWW3ZC7nIPsX7RJ-16" value="" style="shape=image;verticalLabelPosition=bottom;labelBackgroundColor=default;verticalAlign=top;aspect=fixed;imageAspect=0;image=https://upload.wikimedia.org/wikipedia/commons/thumb/3/37/Firebase_Logo.svg/1280px-Firebase_Logo.svg.png;" vertex="1" parent="1">
          <mxGeometry x="106.35" y="218.04" width="155.97" height="43.93" as="geometry" />
        </mxCell>
        <mxCell id="JvV-DLWW3ZC7nIPsX7RJ-23" value="" style="group" vertex="1" connectable="0" parent="1">
          <mxGeometry x="320" y="270" width="385.28" height="110" as="geometry" />
        </mxCell>
        <mxCell id="JvV-DLWW3ZC7nIPsX7RJ-10" value="" style="shape=image;verticalLabelPosition=bottom;labelBackgroundColor=default;verticalAlign=top;aspect=fixed;imageAspect=0;image=https://seeklogo.com/images/L/lerna-logo-D58BD795F6-seeklogo.com.png;" vertex="1" parent="JvV-DLWW3ZC7nIPsX7RJ-23">
          <mxGeometry width="121.3246109463248" height="109.99837145991629" as="geometry" />
        </mxCell>
        <mxCell id="JvV-DLWW3ZC7nIPsX7RJ-11" value="" style="shape=image;verticalLabelPosition=bottom;labelBackgroundColor=default;verticalAlign=top;aspect=fixed;imageAspect=0;image=https://cdn.iconscout.com/icon/free/png-256/free-typescript-1174965.png;" vertex="1" parent="JvV-DLWW3ZC7nIPsX7RJ-23">
          <mxGeometry x="142.8499451464792" y="17.43186508218882" width="75.14298484417536" height="75.14298484417536" as="geometry" />
        </mxCell>
        <mxCell id="JvV-DLWW3ZC7nIPsX7RJ-19" value="" style="shape=image;verticalLabelPosition=bottom;labelBackgroundColor=default;verticalAlign=top;aspect=fixed;imageAspect=0;image=https://cdn.freebiesupply.com/logos/large/2x/bash-1-logo-black-and-white.png;" vertex="1" parent="JvV-DLWW3ZC7nIPsX7RJ-23">
          <mxGeometry x="236.77867620169837" y="29.955881306482564" width="148.50132379830154" height="62.6191540368128" as="geometry" />
        </mxCell>
      </root>
    </mxGraphModel>
  </diagram>
</mxfile>
